# xmcd
#
# Track frame offsets:
#	150
#	11588
#	30032
#	37373
#	48544
#	58939
#	74189
#	87539
#	103142
#	111747
#	122583
#	138854
#	152962
#
# Disc length: 2273 seconds
#
# Revision: 0
# Processed by: cddbd v1.5PL3 Copyright (c) Steve Scherf et al.
# Submitted via: dBpowerAMP V4.0
#
DISCID=c408df0d
DTITLE=Neko Case - Blacklisted
DYEAR=2002
DGENRE=Country
TTITLE0=Things That Scare Me
TTITLE1=Deep Red Bells
TTITLE2=With Bees (Outro)
TTITLE3=Lady Pilot
TTITLE4=Tightly
TTITLE5=Look For Me (I'll Be Around)
TTITLE6=Stinging Velvet
TTITLE7=Pretty Girls
TTITLE8=I Missed The Point
TTITLE9=Blacklisted
TTITLE10=I Wish I Was The Moon
TTITLE11=Runnin' Out Of Fools
TTITLE12=Ghost Wiring
EXTD=
EXTT0=
EXTT1=
EXTT2=
EXTT3=
EXTT4=
EXTT5=
EXTT6=
EXTT7=
EXTT8=
EXTT9=
EXTT10=
EXTT11=
EXTT12=
PLAYORDER=
